<?xml version="1.0" encoding="UTF-8" standalone="yes"?><!-- Created with Inkscape (http://www.inkscape.org/) --><svg xmlns="http://www.w3.org/2000/svg" xmlns:xlink="http://www.w3.org/1999/xlink" width="65mm" height="65mm" version="1.2" baseProfile="tiny-ps" viewBox="0 0 65 65"><title>SCDS</title><defs><linearGradient id="linearGradient6651" x1="38.779" x2="103.78" y1="95.35" y2="160.35" gradientUnits="userSpaceOnUse"><stop stop-color="#a90020" offset="0"></stop><stop stop-color="#6b0086" offset="1"></stop></linearGradient></defs><g transform="translate(-38.779 -105.34)"><path d="m38.779 105.34h65v65h-65z" fill="url(#linearGradient6651)" stroke-width=".26123"></path><g fill="#fff" stroke-width=".40441"><path d="m58.868 134.35q-0.12132 0.19412-0.25882 0.29118-0.12941 0.0971-0.33971 0.0971-0.18603 0-0.40441-0.11324-0.21029-0.12132-0.4853-0.26691-0.26691-0.14559-0.61471-0.25883-0.34779-0.12132-0.79265-0.12132-0.76838 0-1.1485 0.33162-0.37206 0.32353-0.37206 0.88162 0 0.35588 0.22647 0.59044t0.59044 0.40441q0.37206 0.16986 0.84118 0.31544 0.47721 0.1375 0.97059 0.31545 0.49338 0.16985 0.9625 0.40441 0.47721 0.23456 0.84118 0.59853 0.37206 0.36397 0.59853 0.88971 0.22647 0.51764 0.22647 1.2537 0 0.81692-0.28309 1.5287-0.28309 0.71177-0.825 1.2456-0.53382 0.52574-1.3265 0.83309-0.78456 0.29927-1.7875 0.29927-0.55 0-1.1243-0.11324-0.56618-0.11323-1.1-0.31544-0.53382-0.21029-1.0029-0.49338-0.46912-0.28309-0.81691-0.63088l0.80882-1.278q0.08897-0.14559 0.25074-0.23456 0.16176-0.089 0.3478-0.089 0.24265 0 0.4853 0.15368 0.25074 0.15368 0.55809 0.33971 0.31544 0.18603 0.71985 0.3397 0.40441 0.15368 0.95441 0.15368 0.74412 0 1.1566-0.32353 0.4125-0.33162 0.4125-1.0434 0-0.4125-0.22647-0.67132t-0.59853-0.42868q-0.36397-0.16985-0.83309-0.29926-0.46912-0.12941-0.9625-0.28309-0.49338-0.16177-0.9625-0.38824-0.46912-0.23456-0.84118-0.60662-0.36397-0.38014-0.59044-0.93823-0.22647-0.56618-0.22647-1.3912 0-0.66324 0.26691-1.2941 0.26691-0.63089 0.78456-1.1243t1.2699-0.78456q0.75221-0.29926 1.7228-0.29926 0.54191 0 1.0515 0.089 0.51765 0.0809 0.97868 0.25073 0.46103 0.16177 0.85735 0.39633 0.40441 0.22647 0.71985 0.51764z"></path><path d="m69.002 140.69q0.09706 0 0.19412 0.0404 0.09706 0.0324 0.18603 0.12132l1.0838 1.1404q-0.71177 0.93014-1.7875 1.4074-1.0676 0.46912-2.5316 0.46912-1.3426 0-2.4103-0.45294-1.0596-0.46103-1.8037-1.2618-0.73603-0.80882-1.1324-1.9088-0.39632-1.1081-0.39632-2.4022 0-1.3184 0.45294-2.4184 0.45294-1.1081 1.2618-1.9088 0.81691-0.80074 1.9493-1.2456t2.4993-0.44485q0.66324 0 1.2456 0.12132 0.59044 0.11323 1.1 0.32353 0.50956 0.20221 0.93824 0.49338 0.42868 0.28309 0.7603 0.63089l-0.92206 1.2375q-0.08897 0.11323-0.21029 0.21029-0.12132 0.089-0.33971 0.089-0.14559 0-0.275-0.0647t-0.275-0.15368q-0.14559-0.0971-0.32353-0.20221-0.16985-0.11323-0.4125-0.2022-0.23456-0.0971-0.55809-0.16177-0.31544-0.0647-0.74412-0.0647-0.74412 0-1.3588 0.26691-0.61471 0.25882-1.0596 0.75221-0.43676 0.48529-0.6875 1.1809-0.24265 0.69559-0.24265 1.561 0 0.90589 0.24265 1.6096 0.25074 0.70367 0.67132 1.189 0.42868 0.4772 0.99486 0.72794 0.56618 0.25074 1.2132 0.25074 0.37206 0 0.67941-0.0324 0.30735-0.0404 0.56618-0.12941 0.26691-0.089 0.50147-0.22647 0.24265-0.14559 0.4853-0.35588 0.09706-0.0809 0.2103-0.12941 0.11324-0.0566 0.23456-0.0566z"></path><path d="m82.392 137.84q0 1.278-0.44485 2.3618-0.43676 1.0757-1.2375 1.8684-0.80074 0.78456-1.9331 1.2294-1.1243 0.43677-2.4993 0.43677h-4.5779v-11.785h4.5779q1.375 0 2.4993 0.44485 1.1324 0.44485 1.9331 1.2294 0.80074 0.78456 1.2375 1.8684 0.44485 1.0757 0.44485 2.3456zm-2.7985 0q0-0.87353-0.22647-1.5772-0.22647-0.70367-0.65515-1.189-0.42059-0.49338-1.0353-0.75221-0.61471-0.26691-1.3993-0.26691h-1.8279v7.5787h1.8279q0.78456 0 1.3993-0.25882 0.61471-0.26691 1.0353-0.75221 0.42868-0.49338 0.65515-1.1971t0.22647-1.5853z"></path><path d="m90.273 134.35q-0.12132 0.19412-0.25882 0.29118-0.12941 0.0971-0.33971 0.0971-0.18603 0-0.40441-0.11324-0.21029-0.12132-0.4853-0.26691-0.26691-0.14559-0.61471-0.25883-0.34779-0.12132-0.79265-0.12132-0.76838 0-1.1485 0.33162-0.37206 0.32353-0.37206 0.88162 0 0.35588 0.22647 0.59044t0.59044 0.40441q0.37206 0.16986 0.84118 0.31544 0.47721 0.1375 0.97059 0.31545 0.49338 0.16985 0.9625 0.40441 0.47721 0.23456 0.84118 0.59853 0.37206 0.36397 0.59853 0.88971 0.22647 0.51764 0.22647 1.2537 0 0.81692-0.28309 1.5287-0.28309 0.71177-0.825 1.2456-0.53382 0.52574-1.3265 0.83309-0.78456 0.29927-1.7875 0.29927-0.55 0-1.1243-0.11324-0.56618-0.11323-1.1-0.31544-0.53382-0.21029-1.0029-0.49338-0.46912-0.28309-0.81691-0.63088l0.80882-1.278q0.08897-0.14559 0.25074-0.23456 0.16176-0.089 0.3478-0.089 0.24265 0 0.4853 0.15368 0.25074 0.15368 0.55809 0.33971 0.31544 0.18603 0.71985 0.3397 0.40441 0.15368 0.95441 0.15368 0.74412 0 1.1566-0.32353 0.4125-0.33162 0.4125-1.0434 0-0.4125-0.22647-0.67132t-0.59853-0.42868q-0.36397-0.16985-0.83309-0.29926-0.46912-0.12941-0.9625-0.28309-0.49338-0.16177-0.9625-0.38824-0.46912-0.23456-0.84118-0.60662-0.36397-0.38014-0.59044-0.93823-0.22647-0.56618-0.22647-1.3912 0-0.66324 0.26691-1.2941 0.26691-0.63089 0.78456-1.1243t1.2699-0.78456q0.75221-0.29926 1.7228-0.29926 0.54191 0 1.0515 0.089 0.51765 0.0809 0.97868 0.25073 0.46103 0.16177 0.85735 0.39633 0.40441 0.22647 0.71985 0.51764z"></path></g></g></svg>